<svg width="264" height="145" viewBox="0 0 264 145" fill="none" xmlns="http://www.w3.org/2000/svg">
<g filter="url(#filter0_d_19_10)">
<g filter="url(#filter1_d_19_10)">
<rect x="30" y="30" width="184" height="65" rx="32.5" fill="url(#paint0_linear_19_10)"/>
</g>
<path d="M58.6613 64.5654C58.6613 64.3994 58.6369 64.2505 58.588 64.1187C58.5392 63.9819 58.4489 63.855 58.317 63.7378C58.1852 63.6206 57.9948 63.5034 57.7458 63.3862C57.5016 63.2642 57.1794 63.1372 56.779 63.0054C56.3102 62.8491 55.8586 62.6733 55.424 62.478C54.9894 62.2778 54.6012 62.0459 54.2594 61.7822C53.9176 61.5137 53.6466 61.2012 53.4464 60.8447C53.2462 60.4834 53.1461 60.0635 53.1461 59.585C53.1461 59.126 53.2487 58.7134 53.4538 58.3472C53.6588 57.9761 53.9445 57.6611 54.3107 57.4023C54.6818 57.1387 55.1164 56.9385 55.6144 56.8018C56.1125 56.6602 56.6569 56.5894 57.2477 56.5894C58.029 56.5894 58.7174 56.7261 59.3131 56.9995C59.9137 57.2681 60.3825 57.6514 60.7194 58.1494C61.0612 58.6426 61.2321 59.2261 61.2321 59.8999H58.6759C58.6759 59.6313 58.6198 59.3945 58.5075 59.1895C58.4001 58.9844 58.2365 58.8232 58.0168 58.7061C57.797 58.5889 57.5211 58.5303 57.1891 58.5303C56.8669 58.5303 56.5959 58.5791 56.3761 58.6768C56.1564 58.7744 55.9904 58.9062 55.8781 59.0723C55.7658 59.2334 55.7096 59.4116 55.7096 59.6069C55.7096 59.7681 55.7536 59.9146 55.8415 60.0464C55.9342 60.1733 56.0636 60.293 56.2296 60.4053C56.4005 60.5176 56.6056 60.625 56.8449 60.7275C57.089 60.8301 57.3625 60.9302 57.6652 61.0278C58.2316 61.2085 58.7345 61.4111 59.174 61.6357C59.6183 61.8555 59.9919 62.1069 60.2946 62.3901C60.6022 62.6685 60.8341 62.9858 60.9904 63.3423C61.1515 63.6987 61.2321 64.1016 61.2321 64.5508C61.2321 65.0293 61.1393 65.4541 60.9538 65.8252C60.7682 66.1963 60.5021 66.5112 60.1554 66.77C59.8087 67.0239 59.3937 67.2168 58.9103 67.3486C58.4269 67.4805 57.8874 67.5464 57.2917 67.5464C56.7448 67.5464 56.2052 67.478 55.673 67.3413C55.1457 67.1997 54.6671 66.9849 54.2375 66.6968C53.8078 66.4038 53.4635 66.0303 53.2047 65.5762C52.9508 65.1172 52.8239 64.5728 52.8239 63.9429H55.402C55.402 64.2554 55.4435 64.519 55.5265 64.7339C55.6095 64.9487 55.7316 65.1221 55.8927 65.2539C56.0539 65.3809 56.2516 65.4736 56.486 65.5322C56.7204 65.5859 56.9889 65.6128 57.2917 65.6128C57.6188 65.6128 57.8825 65.5664 58.0827 65.4736C58.2829 65.376 58.4294 65.249 58.5221 65.0928C58.6149 64.9316 58.6613 64.7559 58.6613 64.5654ZM72.8439 56.7358H75.4147V63.7012C75.4147 64.5312 75.2414 65.2344 74.8947 65.8105C74.548 66.3818 74.0622 66.814 73.4372 67.1069C72.8122 67.3999 72.0773 67.5464 71.2326 67.5464C70.3976 67.5464 69.6628 67.3999 69.028 67.1069C68.3981 66.814 67.9049 66.3818 67.5485 65.8105C67.1969 65.2344 67.0211 64.5312 67.0211 63.7012V56.7358H69.5993V63.7012C69.5993 64.1406 69.6628 64.4995 69.7897 64.7778C69.9167 65.0513 70.1022 65.2515 70.3463 65.3784C70.5905 65.5054 70.8859 65.5688 71.2326 65.5688C71.5841 65.5688 71.8795 65.5054 72.1188 65.3784C72.3581 65.2515 72.5387 65.0513 72.6608 64.7778C72.7829 64.4995 72.8439 64.1406 72.8439 63.7012V56.7358ZM87.0265 64.5654C87.0265 64.3994 87.0021 64.2505 86.9533 64.1187C86.9044 63.9819 86.8141 63.855 86.6823 63.7378C86.5504 63.6206 86.36 63.5034 86.111 63.3862C85.8669 63.2642 85.5446 63.1372 85.1442 63.0054C84.6754 62.8491 84.2238 62.6733 83.7892 62.478C83.3546 62.2778 82.9665 62.0459 82.6247 61.7822C82.2829 61.5137 82.0119 61.2012 81.8117 60.8447C81.6115 60.4834 81.5114 60.0635 81.5114 59.585C81.5114 59.126 81.6139 58.7134 81.819 58.3472C82.0241 57.9761 82.3097 57.6611 82.6759 57.4023C83.047 57.1387 83.4816 56.9385 83.9796 56.8018C84.4777 56.6602 85.0221 56.5894 85.6129 56.5894C86.3942 56.5894 87.0827 56.7261 87.6784 56.9995C88.279 57.2681 88.7477 57.6514 89.0846 58.1494C89.4264 58.6426 89.5973 59.2261 89.5973 59.8999H87.0412C87.0412 59.6313 86.985 59.3945 86.8727 59.1895C86.7653 58.9844 86.6017 58.8232 86.382 58.7061C86.1623 58.5889 85.8864 58.5303 85.5544 58.5303C85.2321 58.5303 84.9611 58.5791 84.7414 58.6768C84.5216 58.7744 84.3556 58.9062 84.2433 59.0723C84.131 59.2334 84.0749 59.4116 84.0749 59.6069C84.0749 59.7681 84.1188 59.9146 84.2067 60.0464C84.2995 60.1733 84.4289 60.293 84.5949 60.4053C84.7658 60.5176 84.9709 60.625 85.2101 60.7275C85.4543 60.8301 85.7277 60.9302 86.0304 61.0278C86.5968 61.2085 87.0998 61.4111 87.5392 61.6357C87.9836 61.8555 88.3571 62.1069 88.6598 62.3901C88.9674 62.6685 89.1994 62.9858 89.3556 63.3423C89.5168 63.6987 89.5973 64.1016 89.5973 64.5508C89.5973 65.0293 89.5045 65.4541 89.319 65.8252C89.1335 66.1963 88.8673 66.5112 88.5207 66.77C88.174 67.0239 87.7589 67.2168 87.2755 67.3486C86.7921 67.4805 86.2526 67.5464 85.6569 67.5464C85.11 67.5464 84.5705 67.478 84.0382 67.3413C83.5109 67.1997 83.0324 66.9849 82.6027 66.6968C82.173 66.4038 81.8288 66.0303 81.57 65.5762C81.3161 65.1172 81.1891 64.5728 81.1891 63.9429H83.7672C83.7672 64.2554 83.8087 64.519 83.8918 64.7339C83.9748 64.9487 84.0968 65.1221 84.258 65.2539C84.4191 65.3809 84.6169 65.4736 84.8512 65.5322C85.0856 65.5859 85.3542 65.6128 85.6569 65.6128C85.984 65.6128 86.2477 65.5664 86.4479 65.4736C86.6481 65.376 86.7946 65.249 86.8874 65.0928C86.9801 64.9316 87.0265 64.7559 87.0265 64.5654ZM101.487 63.7891H104.051C104.017 64.5312 103.817 65.1855 103.45 65.752C103.084 66.3184 102.576 66.7603 101.927 67.0776C101.282 67.3901 100.521 67.5464 99.6418 67.5464C98.9289 67.5464 98.2917 67.4268 97.7301 67.1875C97.1735 66.9482 96.6999 66.604 96.3092 66.1548C95.9235 65.7056 95.6281 65.1611 95.423 64.5215C95.2228 63.8818 95.1227 63.1616 95.1227 62.3608V61.7822C95.1227 60.9814 95.2277 60.2612 95.4377 59.6216C95.6525 58.9771 95.9552 58.4302 96.3459 57.981C96.7414 57.5269 97.215 57.1802 97.7668 56.9409C98.3185 56.7017 98.9313 56.582 99.6051 56.582C100.533 56.582 101.317 56.748 101.956 57.0801C102.596 57.4121 103.091 57.8687 103.443 58.4497C103.795 59.0259 104.002 59.6826 104.066 60.4199H101.502C101.492 60.0195 101.424 59.6851 101.297 59.4165C101.17 59.1431 100.97 58.938 100.696 58.8013C100.423 58.6646 100.059 58.5962 99.6051 58.5962C99.2878 58.5962 99.0119 58.6548 98.7775 58.772C98.5431 58.8892 98.3478 59.0747 98.1916 59.3286C98.0353 59.5825 97.9181 59.9121 97.84 60.3174C97.7668 60.7178 97.7301 61.2012 97.7301 61.7676V62.3608C97.7301 62.9272 97.7643 63.4106 97.8327 63.811C97.901 64.2114 98.0109 64.5386 98.1623 64.7925C98.3136 65.0464 98.5089 65.2344 98.7482 65.3564C98.9923 65.4736 99.2902 65.5322 99.6418 65.5322C100.032 65.5322 100.362 65.4712 100.631 65.3491C100.899 65.2222 101.107 65.0317 101.253 64.7778C101.4 64.519 101.478 64.1895 101.487 63.7891ZM109.767 56.7358H113.964C114.784 56.7358 115.497 56.8579 116.102 57.1021C116.708 57.3462 117.174 57.7075 117.501 58.186C117.833 58.6646 117.999 59.2554 117.999 59.9585C117.999 60.5688 117.904 61.0791 117.714 61.4893C117.523 61.8994 117.257 62.2388 116.915 62.5073C116.578 62.771 116.185 62.9883 115.736 63.1592L114.894 63.6353H111.371L111.356 61.6504H113.964C114.291 61.6504 114.562 61.5918 114.777 61.4746C114.991 61.3574 115.152 61.1914 115.26 60.9766C115.372 60.7568 115.428 60.4956 115.428 60.1929C115.428 59.8853 115.372 59.6216 115.26 59.4019C115.148 59.1821 114.982 59.0137 114.762 58.8965C114.547 58.7793 114.281 58.7207 113.964 58.7207H112.338V67.3999H109.767V56.7358ZM115.604 67.3999L113.246 62.6831L115.97 62.6685L118.358 67.29V67.3999H115.604ZM126.784 56.7358V67.3999H124.22V56.7358H126.784ZM137.444 62.8662H134.697L134.682 61.1816H136.909C137.309 61.1816 137.629 61.1377 137.868 61.0498C138.108 60.957 138.281 60.8228 138.388 60.647C138.501 60.4712 138.557 60.2515 138.557 59.9878C138.557 59.6851 138.501 59.4409 138.388 59.2554C138.276 59.0698 138.098 58.9355 137.854 58.8525C137.614 58.7646 137.304 58.7207 136.923 58.7207H135.664V67.3999H133.093V56.7358H136.923C137.583 56.7358 138.171 56.7969 138.689 56.9189C139.206 57.0361 139.646 57.2168 140.007 57.4609C140.373 57.7051 140.652 58.0127 140.842 58.3838C141.032 58.75 141.128 59.1821 141.128 59.6802C141.128 60.1147 141.035 60.5225 140.849 60.9033C140.664 61.2842 140.354 61.5942 139.919 61.8335C139.489 62.0679 138.901 62.1899 138.154 62.1997L137.444 62.8662ZM137.341 67.3999H134.074L134.953 65.4224H137.341C137.693 65.4224 137.973 65.3687 138.183 65.2612C138.398 65.1489 138.552 65.0024 138.645 64.8218C138.742 64.6362 138.791 64.4312 138.791 64.2065C138.791 63.9331 138.745 63.6963 138.652 63.4961C138.564 63.2959 138.423 63.1421 138.227 63.0347C138.032 62.9224 137.771 62.8662 137.444 62.8662H135.283L135.298 61.1816H137.883L138.484 61.8555C139.196 61.8262 139.76 61.9263 140.175 62.1558C140.595 62.3853 140.896 62.688 141.076 63.064C141.257 63.4399 141.347 63.833 141.347 64.2432C141.347 64.9414 141.196 65.5249 140.893 65.9937C140.595 66.4624 140.149 66.814 139.553 67.0483C138.957 67.2827 138.22 67.3999 137.341 67.3999ZM150.007 56.7358V67.3999H147.444V56.7358H150.007ZM156.317 56.7358H160.513C161.334 56.7358 162.047 56.8579 162.652 57.1021C163.257 57.3462 163.724 57.7075 164.051 58.186C164.383 58.6646 164.549 59.2554 164.549 59.9585C164.549 60.5688 164.454 61.0791 164.263 61.4893C164.073 61.8994 163.807 62.2388 163.465 62.5073C163.128 62.771 162.735 62.9883 162.286 63.1592L161.444 63.6353H157.921L157.906 61.6504H160.513C160.84 61.6504 161.111 61.5918 161.326 61.4746C161.541 61.3574 161.702 61.1914 161.81 60.9766C161.922 60.7568 161.978 60.4956 161.978 60.1929C161.978 59.8853 161.922 59.6216 161.81 59.4019C161.697 59.1821 161.531 59.0137 161.312 58.8965C161.097 58.7793 160.831 58.7207 160.513 58.7207H158.887V67.3999H156.317V56.7358ZM162.154 67.3999L159.796 62.6831L162.52 62.6685L164.908 67.29V67.3999H162.154ZM176.095 64.5654C176.095 64.3994 176.07 64.2505 176.022 64.1187C175.973 63.9819 175.882 63.855 175.751 63.7378C175.619 63.6206 175.428 63.5034 175.179 63.3862C174.935 63.2642 174.613 63.1372 174.213 63.0054C173.744 62.8491 173.292 62.6733 172.858 62.478C172.423 62.2778 172.035 62.0459 171.693 61.7822C171.351 61.5137 171.08 61.2012 170.88 60.8447C170.68 60.4834 170.58 60.0635 170.58 59.585C170.58 59.126 170.682 58.7134 170.887 58.3472C171.092 57.9761 171.378 57.6611 171.744 57.4023C172.115 57.1387 172.55 56.9385 173.048 56.8018C173.546 56.6602 174.09 56.5894 174.681 56.5894C175.463 56.5894 176.151 56.7261 176.747 56.9995C177.347 57.2681 177.816 57.6514 178.153 58.1494C178.495 58.6426 178.666 59.2261 178.666 59.8999H176.11C176.11 59.6313 176.053 59.3945 175.941 59.1895C175.834 58.9844 175.67 58.8232 175.45 58.7061C175.231 58.5889 174.955 58.5303 174.623 58.5303C174.3 58.5303 174.029 58.5791 173.81 58.6768C173.59 58.7744 173.424 58.9062 173.312 59.0723C173.199 59.2334 173.143 59.4116 173.143 59.6069C173.143 59.7681 173.187 59.9146 173.275 60.0464C173.368 60.1733 173.497 60.293 173.663 60.4053C173.834 60.5176 174.039 60.625 174.278 60.7275C174.523 60.8301 174.796 60.9302 175.099 61.0278C175.665 61.2085 176.168 61.4111 176.608 61.6357C177.052 61.8555 177.425 62.1069 177.728 62.3901C178.036 62.6685 178.268 62.9858 178.424 63.3423C178.585 63.6987 178.666 64.1016 178.666 64.5508C178.666 65.0293 178.573 65.4541 178.387 65.8252C178.202 66.1963 177.936 66.5112 177.589 66.77C177.242 67.0239 176.827 67.2168 176.344 67.3486C175.861 67.4805 175.321 67.5464 174.725 67.5464C174.178 67.5464 173.639 67.478 173.107 67.3413C172.579 67.1997 172.101 66.9849 171.671 66.6968C171.241 66.4038 170.897 66.0303 170.638 65.5762C170.384 65.1172 170.257 64.5728 170.257 63.9429H172.836C172.836 64.2554 172.877 64.519 172.96 64.7339C173.043 64.9487 173.165 65.1221 173.326 65.2539C173.487 65.3809 173.685 65.4736 173.92 65.5322C174.154 65.5859 174.423 65.6128 174.725 65.6128C175.052 65.6128 175.316 65.5664 175.516 65.4736C175.716 65.376 175.863 65.249 175.956 65.0928C176.048 64.9316 176.095 64.7559 176.095 64.5654ZM191.83 65.4224V67.3999H186.147V65.4224H191.83ZM187.062 56.7358V67.3999H184.491V56.7358H187.062ZM191.098 60.9692V62.8809H186.147V60.9692H191.098ZM191.852 56.7358V58.7207H186.147V56.7358H191.852Z" fill="white"/>
</g>
<defs>
<filter id="filter0_d_19_10" x="26" y="30" width="192" height="73" filterUnits="userSpaceOnUse" color-interpolation-filters="sRGB">
<feFlood flood-opacity="0" result="BackgroundImageFix"/>
<feColorMatrix in="SourceAlpha" type="matrix" values="0 0 0 0 0 0 0 0 0 0 0 0 0 0 0 0 0 0 127 0" result="hardAlpha"/>
<feOffset dy="4"/>
<feGaussianBlur stdDeviation="2"/>
<feComposite in2="hardAlpha" operator="out"/>
<feColorMatrix type="matrix" values="0 0 0 0 0 0 0 0 0 0 0 0 0 0 0 0 0 0 0.25 0"/>
<feBlend mode="normal" in2="BackgroundImageFix" result="effect1_dropShadow_19_10"/>
<feBlend mode="normal" in="SourceGraphic" in2="effect1_dropShadow_19_10" result="shape"/>
</filter>
<filter id="filter1_d_19_10" x="0" y="0" width="264" height="145" filterUnits="userSpaceOnUse" color-interpolation-filters="sRGB">
<feFlood flood-opacity="0" result="BackgroundImageFix"/>
<feColorMatrix in="SourceAlpha" type="matrix" values="0 0 0 0 0 0 0 0 0 0 0 0 0 0 0 0 0 0 127 0" result="hardAlpha"/>
<feOffset dx="10" dy="10"/>
<feGaussianBlur stdDeviation="20"/>
<feComposite in2="hardAlpha" operator="out"/>
<feColorMatrix type="matrix" values="0 0 0 0 1 0 0 0 0 0 0 0 0 0 0.9 0 0 0 0.7 0"/>
<feBlend mode="normal" in2="BackgroundImageFix" result="effect1_dropShadow_19_10"/>
<feBlend mode="normal" in="SourceGraphic" in2="effect1_dropShadow_19_10" result="shape"/>
</filter>
<linearGradient id="paint0_linear_19_10" x1="45.5226" y1="40.4" x2="189.839" y2="77.4847" gradientUnits="userSpaceOnUse">
<stop stop-color="#392D38"/>
<stop offset="1" stop-color="#ED7AE1"/>
</linearGradient>
</defs>
</svg>
