<svg width="399" height="145" viewBox="0 0 399 145" fill="none" xmlns="http://www.w3.org/2000/svg">
<g filter="url(#filter0_d_24_303)">
<g filter="url(#filter1_d_24_303)">
<rect x="30" y="30" width="319" height="65" rx="32.5" fill="url(#paint0_linear_24_303)" shape-rendering="crispEdges"/>
</g>
<path d="M73.8107 64.0527V56.7358H76.3742V64.0527C76.3742 64.7656 76.2106 65.3833 75.8835 65.9058C75.5612 66.4282 75.1218 66.8335 74.5651 67.1216C74.0134 67.4048 73.3932 67.5464 72.7048 67.5464C71.9919 67.5464 71.3571 67.4268 70.8005 67.1875C70.2487 66.9482 69.8141 66.5796 69.4968 66.0815C69.1843 65.5835 69.028 64.9487 69.028 64.1772H71.6061C71.6061 64.5386 71.6476 64.8218 71.7307 65.0269C71.8137 65.2271 71.9357 65.3687 72.0969 65.4517C72.2629 65.5298 72.4655 65.5688 72.7048 65.5688C72.9391 65.5688 73.1369 65.5103 73.298 65.3931C73.4641 65.271 73.591 65.0977 73.6789 64.873C73.7668 64.6436 73.8107 64.3701 73.8107 64.0527ZM91.5309 61.8555V62.2876C91.5309 63.103 91.4162 63.8354 91.1867 64.4849C90.9621 65.1294 90.6423 65.6812 90.2272 66.1401C89.8122 66.5942 89.3215 66.9434 88.7551 67.1875C88.1887 67.4268 87.5637 67.5464 86.8801 67.5464C86.1916 67.5464 85.5617 67.4268 84.9904 67.1875C84.424 66.9434 83.9308 66.5942 83.5109 66.1401C83.0959 65.6812 82.7736 65.1294 82.5441 64.4849C82.3195 63.8354 82.2072 63.103 82.2072 62.2876V61.8555C82.2072 61.04 82.3195 60.3076 82.5441 59.6582C82.7736 59.0088 83.0934 58.457 83.5036 58.0029C83.9186 57.5439 84.4094 57.1948 84.9758 56.9556C85.5471 56.7114 86.1769 56.5894 86.8654 56.5894C87.549 56.5894 88.174 56.7114 88.7404 56.9556C89.3117 57.1948 89.8049 57.5439 90.2199 58.0029C90.6349 58.457 90.9572 59.0088 91.1867 59.6582C91.4162 60.3076 91.5309 61.04 91.5309 61.8555ZM88.9235 62.2876V61.8408C88.9235 61.3135 88.8771 60.8496 88.7844 60.4492C88.6965 60.0439 88.5646 59.7046 88.3889 59.4312C88.2131 59.1577 87.9958 58.9526 87.737 58.8159C87.4831 58.6743 87.1926 58.6035 86.8654 58.6035C86.5236 58.6035 86.2258 58.6743 85.9719 58.8159C85.718 58.9526 85.5056 59.1577 85.3347 59.4312C85.1638 59.7046 85.0344 60.0439 84.9465 60.4492C84.8635 60.8496 84.822 61.3135 84.822 61.8408V62.2876C84.822 62.8101 84.8635 63.2739 84.9465 63.6792C85.0344 64.0796 85.1638 64.4189 85.3347 64.6973C85.5104 64.9756 85.7253 65.1855 85.9792 65.3271C86.238 65.4688 86.5383 65.5396 86.8801 65.5396C87.2072 65.5396 87.4977 65.4688 87.7516 65.3271C88.0056 65.1855 88.218 64.9756 88.3889 64.6973C88.5646 64.4189 88.6965 64.0796 88.7844 63.6792C88.8771 63.2739 88.9235 62.8101 88.9235 62.2876ZM100.096 56.7358V67.3999H97.5324V56.7358H100.096ZM115.311 56.7358V67.3999H112.748L108.976 60.7642V67.3999H106.405V56.7358H108.976L112.748 63.3716V56.7358H115.311ZM138.696 61.8555V62.2876C138.696 63.103 138.581 63.8354 138.352 64.4849C138.127 65.1294 137.807 65.6812 137.392 66.1401C136.977 66.5942 136.487 66.9434 135.92 67.1875C135.354 67.4268 134.729 67.5464 134.045 67.5464C133.357 67.5464 132.727 67.4268 132.155 67.1875C131.589 66.9434 131.096 66.5942 130.676 66.1401C130.261 65.6812 129.939 65.1294 129.709 64.4849C129.485 63.8354 129.372 63.103 129.372 62.2876V61.8555C129.372 61.04 129.485 60.3076 129.709 59.6582C129.939 59.0088 130.258 58.457 130.669 58.0029C131.084 57.5439 131.574 57.1948 132.141 56.9556C132.712 56.7114 133.342 56.5894 134.03 56.5894C134.714 56.5894 135.339 56.7114 135.905 56.9556C136.477 57.1948 136.97 57.5439 137.385 58.0029C137.8 58.457 138.122 59.0088 138.352 59.6582C138.581 60.3076 138.696 61.04 138.696 61.8555ZM136.089 62.2876V61.8408C136.089 61.3135 136.042 60.8496 135.949 60.4492C135.862 60.0439 135.73 59.7046 135.554 59.4312C135.378 59.1577 135.161 58.9526 134.902 58.8159C134.648 58.6743 134.358 58.6035 134.03 58.6035C133.689 58.6035 133.391 58.6743 133.137 58.8159C132.883 58.9526 132.671 59.1577 132.5 59.4312C132.329 59.7046 132.199 60.0439 132.112 60.4492C132.029 60.8496 131.987 61.3135 131.987 61.8408V62.2876C131.987 62.8101 132.029 63.2739 132.112 63.6792C132.199 64.0796 132.329 64.4189 132.5 64.6973C132.675 64.9756 132.89 65.1855 133.144 65.3271C133.403 65.4688 133.703 65.5396 134.045 65.5396C134.372 65.5396 134.663 65.4688 134.917 65.3271C135.171 65.1855 135.383 64.9756 135.554 64.6973C135.73 64.4189 135.862 64.0796 135.949 63.6792C136.042 63.2739 136.089 62.8101 136.089 62.2876ZM150.315 56.7358H152.886V63.7012C152.886 64.5312 152.713 65.2344 152.366 65.8105C152.019 66.3818 151.533 66.814 150.908 67.1069C150.283 67.3999 149.549 67.5464 148.704 67.5464C147.869 67.5464 147.134 67.3999 146.499 67.1069C145.869 66.814 145.376 66.3818 145.02 65.8105C144.668 65.2344 144.492 64.5312 144.492 63.7012V56.7358H147.07V63.7012C147.07 64.1406 147.134 64.4995 147.261 64.7778C147.388 65.0513 147.573 65.2515 147.818 65.3784C148.062 65.5054 148.357 65.5688 148.704 65.5688C149.055 65.5688 149.351 65.5054 149.59 65.3784C149.829 65.2515 150.01 65.0513 150.132 64.7778C150.254 64.4995 150.315 64.1406 150.315 63.7012V56.7358ZM159.005 56.7358H163.201C164.022 56.7358 164.735 56.8579 165.34 57.1021C165.945 57.3462 166.412 57.7075 166.739 58.186C167.071 58.6646 167.237 59.2554 167.237 59.9585C167.237 60.5688 167.142 61.0791 166.951 61.4893C166.761 61.8994 166.495 62.2388 166.153 62.5073C165.816 62.771 165.423 62.9883 164.974 63.1592L164.132 63.6353H160.609L160.594 61.6504H163.201C163.529 61.6504 163.799 61.5918 164.014 61.4746C164.229 61.3574 164.39 61.1914 164.498 60.9766C164.61 60.7568 164.666 60.4956 164.666 60.1929C164.666 59.8853 164.61 59.6216 164.498 59.4019C164.385 59.1821 164.219 59.0137 164 58.8965C163.785 58.7793 163.519 58.7207 163.201 58.7207H161.575V67.3999H159.005V56.7358ZM164.842 67.3999L162.484 62.6831L165.208 62.6685L167.596 67.29V67.3999H164.842ZM187.59 63.7891H190.153C190.119 64.5312 189.919 65.1855 189.552 65.752C189.186 66.3184 188.678 66.7603 188.029 67.0776C187.384 67.3901 186.623 67.5464 185.744 67.5464C185.031 67.5464 184.394 67.4268 183.832 67.1875C183.276 66.9482 182.802 66.604 182.411 66.1548C182.026 65.7056 181.73 65.1611 181.525 64.5215C181.325 63.8818 181.225 63.1616 181.225 62.3608V61.7822C181.225 60.9814 181.33 60.2612 181.54 59.6216C181.755 58.9771 182.057 58.4302 182.448 57.981C182.843 57.5269 183.317 57.1802 183.869 56.9409C184.421 56.7017 185.033 56.582 185.707 56.582C186.635 56.582 187.419 56.748 188.058 57.0801C188.698 57.4121 189.194 57.8687 189.545 58.4497C189.897 59.0259 190.104 59.6826 190.168 60.4199H187.604C187.594 60.0195 187.526 59.6851 187.399 59.4165C187.272 59.1431 187.072 58.938 186.799 58.8013C186.525 58.6646 186.161 58.5962 185.707 58.5962C185.39 58.5962 185.114 58.6548 184.88 58.772C184.645 58.8892 184.45 59.0747 184.294 59.3286C184.137 59.5825 184.02 59.9121 183.942 60.3174C183.869 60.7178 183.832 61.2012 183.832 61.7676V62.3608C183.832 62.9272 183.866 63.4106 183.935 63.811C184.003 64.2114 184.113 64.5386 184.264 64.7925C184.416 65.0464 184.611 65.2344 184.85 65.3564C185.094 65.4736 185.392 65.5322 185.744 65.5322C186.134 65.5322 186.464 65.4712 186.733 65.3491C187.001 65.2222 187.209 65.0317 187.355 64.7778C187.502 64.519 187.58 64.1895 187.59 63.7891ZM204.892 61.8555V62.2876C204.892 63.103 204.778 63.8354 204.548 64.4849C204.323 65.1294 204.004 65.6812 203.589 66.1401C203.174 66.5942 202.683 66.9434 202.116 67.1875C201.55 67.4268 200.925 67.5464 200.241 67.5464C199.553 67.5464 198.923 67.4268 198.352 67.1875C197.785 66.9434 197.292 66.5942 196.872 66.1401C196.457 65.6812 196.135 65.1294 195.905 64.4849C195.681 63.8354 195.569 63.103 195.569 62.2876V61.8555C195.569 61.04 195.681 60.3076 195.905 59.6582C196.135 59.0088 196.455 58.457 196.865 58.0029C197.28 57.5439 197.771 57.1948 198.337 56.9556C198.908 56.7114 199.538 56.5894 200.227 56.5894C200.91 56.5894 201.535 56.7114 202.102 56.9556C202.673 57.1948 203.166 57.5439 203.581 58.0029C203.996 58.457 204.319 59.0088 204.548 59.6582C204.778 60.3076 204.892 61.04 204.892 61.8555ZM202.285 62.2876V61.8408C202.285 61.3135 202.238 60.8496 202.146 60.4492C202.058 60.0439 201.926 59.7046 201.75 59.4312C201.574 59.1577 201.357 58.9526 201.098 58.8159C200.844 58.6743 200.554 58.6035 200.227 58.6035C199.885 58.6035 199.587 58.6743 199.333 58.8159C199.079 58.9526 198.867 59.1577 198.696 59.4312C198.525 59.7046 198.396 60.0439 198.308 60.4492C198.225 60.8496 198.183 61.3135 198.183 61.8408V62.2876C198.183 62.8101 198.225 63.2739 198.308 63.6792C198.396 64.0796 198.525 64.4189 198.696 64.6973C198.872 64.9756 199.087 65.1855 199.341 65.3271C199.599 65.4688 199.9 65.5396 200.241 65.5396C200.569 65.5396 200.859 65.4688 201.113 65.3271C201.367 65.1855 201.579 64.9756 201.75 64.6973C201.926 64.4189 202.058 64.0796 202.146 63.6792C202.238 63.2739 202.285 62.8101 202.285 62.2876ZM212 56.7358H214.094L216.475 64.1553L218.855 56.7358H220.95L217.324 67.3999H215.625L212 56.7358ZM210.725 56.7358H212.893L213.296 64.9097V67.3999H210.725V56.7358ZM220.056 56.7358H222.232V67.3999H219.654V64.9097L220.056 56.7358ZM229.654 56.7358H231.749L234.129 64.1553L236.509 56.7358H238.604L234.979 67.3999H233.279L229.654 56.7358ZM228.38 56.7358H230.548L230.95 64.9097V67.3999H228.38V56.7358ZM237.711 56.7358H239.886V67.3999H237.308V64.9097L237.711 56.7358ZM251.82 56.7358H254.391V63.7012C254.391 64.5312 254.217 65.2344 253.871 65.8105C253.524 66.3818 253.038 66.814 252.413 67.1069C251.788 67.3999 251.053 67.5464 250.209 67.5464C249.374 67.5464 248.639 67.3999 248.004 67.1069C247.374 66.814 246.881 66.3818 246.525 65.8105C246.173 65.2344 245.997 64.5312 245.997 63.7012V56.7358H248.575V63.7012C248.575 64.1406 248.639 64.4995 248.766 64.7778C248.893 65.0513 249.078 65.2515 249.322 65.3784C249.567 65.5054 249.862 65.5688 250.209 65.5688C250.56 65.5688 250.856 65.5054 251.095 65.3784C251.334 65.2515 251.515 65.0513 251.637 64.7778C251.759 64.4995 251.82 64.1406 251.82 63.7012V56.7358ZM269.416 56.7358V67.3999H266.852L263.08 60.7642V67.3999H260.509V56.7358H263.08L266.852 63.3716V56.7358H269.416ZM278.274 56.7358V67.3999H275.71V56.7358H278.274ZM289.527 56.7358V67.3999H286.956V56.7358H289.527ZM292.735 56.7358V58.7207H283.821V56.7358H292.735ZM300.377 56.7358L302.34 61.3647L304.31 56.7358H307.078L303.651 63.5693V67.3999H301.036V63.5693L297.601 56.7358H300.377Z" fill="white"/>
</g>
<defs>
<filter id="filter0_d_24_303" x="26" y="30" width="327" height="73" filterUnits="userSpaceOnUse" color-interpolation-filters="sRGB">
<feFlood flood-opacity="0" result="BackgroundImageFix"/>
<feColorMatrix in="SourceAlpha" type="matrix" values="0 0 0 0 0 0 0 0 0 0 0 0 0 0 0 0 0 0 127 0" result="hardAlpha"/>
<feOffset dy="4"/>
<feGaussianBlur stdDeviation="2"/>
<feComposite in2="hardAlpha" operator="out"/>
<feColorMatrix type="matrix" values="0 0 0 0 0 0 0 0 0 0 0 0 0 0 0 0 0 0 0.25 0"/>
<feBlend mode="normal" in2="BackgroundImageFix" result="effect1_dropShadow_24_303"/>
<feBlend mode="normal" in="SourceGraphic" in2="effect1_dropShadow_24_303" result="shape"/>
</filter>
<filter id="filter1_d_24_303" x="0" y="0" width="399" height="145" filterUnits="userSpaceOnUse" color-interpolation-filters="sRGB">
<feFlood flood-opacity="0" result="BackgroundImageFix"/>
<feColorMatrix in="SourceAlpha" type="matrix" values="0 0 0 0 0 0 0 0 0 0 0 0 0 0 0 0 0 0 127 0" result="hardAlpha"/>
<feOffset dx="10" dy="10"/>
<feGaussianBlur stdDeviation="20"/>
<feComposite in2="hardAlpha" operator="out"/>
<feColorMatrix type="matrix" values="0 0 0 0 1 0 0 0 0 0 0 0 0 0 0.9 0 0 0 0.7 0"/>
<feBlend mode="normal" in2="BackgroundImageFix" result="effect1_dropShadow_24_303"/>
<feBlend mode="normal" in="SourceGraphic" in2="effect1_dropShadow_24_303" result="shape"/>
</filter>
<linearGradient id="paint0_linear_24_303" x1="56.9115" y1="40.4" x2="279.462" y2="139.548" gradientUnits="userSpaceOnUse">
<stop stop-opacity="0.25"/>
<stop offset="1" stop-color="#ED7AE1"/>
</linearGradient>
</defs>
</svg>
