<svg width="298" height="145" viewBox="0 0 298 145" fill="none" xmlns="http://www.w3.org/2000/svg">
<g filter="url(#filter0_d_24_343)">
<g filter="url(#filter1_d_24_343)">
<rect x="30" y="30" width="218" height="65" rx="32.5" fill="url(#paint0_linear_24_343)" shape-rendering="crispEdges"/>
</g>
<path d="M100.145 67.3999H97.7791L97.7937 65.4224H100.145C100.633 65.4224 101.046 65.3052 101.383 65.0708C101.724 64.8364 101.983 64.4873 102.159 64.0234C102.34 63.5547 102.43 62.9785 102.43 62.2949V61.8335C102.43 61.3208 102.379 60.8716 102.276 60.4858C102.178 60.0952 102.032 59.7705 101.837 59.5117C101.641 59.248 101.397 59.0503 101.104 58.9185C100.816 58.7866 100.484 58.7207 100.108 58.7207H97.7351V56.7358H100.108C100.831 56.7358 101.492 56.8604 102.093 57.1094C102.699 57.3535 103.221 57.7051 103.66 58.1641C104.105 58.6182 104.447 59.1577 104.686 59.7827C104.93 60.4028 105.052 61.0913 105.052 61.8481V62.2949C105.052 63.0469 104.93 63.7354 104.686 64.3604C104.447 64.9854 104.107 65.5249 103.668 65.979C103.228 66.4331 102.708 66.7847 102.108 67.0337C101.512 67.2778 100.858 67.3999 100.145 67.3999ZM99.2512 56.7358V67.3999H96.6804V56.7358H99.2512ZM113.624 56.7358V67.3999H111.061V56.7358H113.624ZM125.427 64.5654C125.427 64.3994 125.402 64.2505 125.353 64.1187C125.304 63.9819 125.214 63.855 125.082 63.7378C124.95 63.6206 124.76 63.5034 124.511 63.3862C124.267 63.2642 123.945 63.1372 123.544 63.0054C123.075 62.8491 122.624 62.6733 122.189 62.478C121.755 62.2778 121.366 62.0459 121.025 61.7822C120.683 61.5137 120.412 61.2012 120.212 60.8447C120.011 60.4834 119.911 60.0635 119.911 59.585C119.911 59.126 120.014 58.7134 120.219 58.3472C120.424 57.9761 120.71 57.6611 121.076 57.4023C121.447 57.1387 121.882 56.9385 122.38 56.8018C122.878 56.6602 123.422 56.5894 124.013 56.5894C124.794 56.5894 125.483 56.7261 126.078 56.9995C126.679 57.2681 127.148 57.6514 127.485 58.1494C127.826 58.6426 127.997 59.2261 127.997 59.8999H125.441C125.441 59.6313 125.385 59.3945 125.273 59.1895C125.165 58.9844 125.002 58.8232 124.782 58.7061C124.562 58.5889 124.286 58.5303 123.954 58.5303C123.632 58.5303 123.361 58.5791 123.141 58.6768C122.922 58.7744 122.756 58.9062 122.643 59.0723C122.531 59.2334 122.475 59.4116 122.475 59.6069C122.475 59.7681 122.519 59.9146 122.607 60.0464C122.699 60.1733 122.829 60.293 122.995 60.4053C123.166 60.5176 123.371 60.625 123.61 60.7275C123.854 60.8301 124.128 60.9302 124.43 61.0278C124.997 61.2085 125.5 61.4111 125.939 61.6357C126.384 61.8555 126.757 62.1069 127.06 62.3901C127.367 62.6685 127.599 62.9858 127.756 63.3423C127.917 63.6987 127.997 64.1016 127.997 64.5508C127.997 65.0293 127.905 65.4541 127.719 65.8252C127.533 66.1963 127.267 66.5112 126.921 66.77C126.574 67.0239 126.159 67.2168 125.676 67.3486C125.192 67.4805 124.653 67.5464 124.057 67.5464C123.51 67.5464 122.97 67.478 122.438 67.3413C121.911 67.1997 121.432 66.9849 121.003 66.6968C120.573 66.4038 120.229 66.0303 119.97 65.5762C119.716 65.1172 119.589 64.5728 119.589 63.9429H122.167C122.167 64.2554 122.209 64.519 122.292 64.7339C122.375 64.9487 122.497 65.1221 122.658 65.2539C122.819 65.3809 123.017 65.4736 123.251 65.5322C123.486 65.5859 123.754 65.6128 124.057 65.6128C124.384 65.6128 124.648 65.5664 124.848 65.4736C125.048 65.376 125.195 65.249 125.287 65.0928C125.38 64.9316 125.427 64.7559 125.427 64.5654ZM139.887 63.7891H142.451C142.417 64.5312 142.217 65.1855 141.85 65.752C141.484 66.3184 140.976 66.7603 140.327 67.0776C139.682 67.3901 138.921 67.5464 138.042 67.5464C137.329 67.5464 136.692 67.4268 136.13 67.1875C135.574 66.9482 135.1 66.604 134.709 66.1548C134.324 65.7056 134.028 65.1611 133.823 64.5215C133.623 63.8818 133.523 63.1616 133.523 62.3608V61.7822C133.523 60.9814 133.628 60.2612 133.838 59.6216C134.053 58.9771 134.355 58.4302 134.746 57.981C135.141 57.5269 135.615 57.1802 136.167 56.9409C136.719 56.7017 137.331 56.582 138.005 56.582C138.933 56.582 139.717 56.748 140.356 57.0801C140.996 57.4121 141.491 57.8687 141.843 58.4497C142.195 59.0259 142.402 59.6826 142.466 60.4199H139.902C139.892 60.0195 139.824 59.6851 139.697 59.4165C139.57 59.1431 139.37 58.938 139.096 58.8013C138.823 58.6646 138.459 58.5962 138.005 58.5962C137.688 58.5962 137.412 58.6548 137.178 58.772C136.943 58.8892 136.748 59.0747 136.592 59.3286C136.435 59.5825 136.318 59.9121 136.24 60.3174C136.167 60.7178 136.13 61.2012 136.13 61.7676V62.3608C136.13 62.9272 136.164 63.4106 136.233 63.811C136.301 64.2114 136.411 64.5386 136.562 64.7925C136.714 65.0464 136.909 65.2344 137.148 65.3564C137.392 65.4736 137.69 65.5322 138.042 65.5322C138.432 65.5322 138.762 65.4712 139.031 65.3491C139.299 65.2222 139.507 65.0317 139.653 64.7778C139.8 64.519 139.878 64.1895 139.887 63.7891ZM157.19 61.8555V62.2876C157.19 63.103 157.075 63.8354 156.846 64.4849C156.621 65.1294 156.302 65.6812 155.886 66.1401C155.471 66.5942 154.981 66.9434 154.414 67.1875C153.848 67.4268 153.223 67.5464 152.539 67.5464C151.851 67.5464 151.221 67.4268 150.65 67.1875C150.083 66.9434 149.59 66.5942 149.17 66.1401C148.755 65.6812 148.433 65.1294 148.203 64.4849C147.979 63.8354 147.866 63.103 147.866 62.2876V61.8555C147.866 61.04 147.979 60.3076 148.203 59.6582C148.433 59.0088 148.753 58.457 149.163 58.0029C149.578 57.5439 150.069 57.1948 150.635 56.9556C151.206 56.7114 151.836 56.5894 152.525 56.5894C153.208 56.5894 153.833 56.7114 154.4 56.9556C154.971 57.1948 155.464 57.5439 155.879 58.0029C156.294 58.457 156.616 59.0088 156.846 59.6582C157.075 60.3076 157.19 61.04 157.19 61.8555ZM154.583 62.2876V61.8408C154.583 61.3135 154.536 60.8496 154.444 60.4492C154.356 60.0439 154.224 59.7046 154.048 59.4312C153.872 59.1577 153.655 58.9526 153.396 58.8159C153.142 58.6743 152.852 58.6035 152.525 58.6035C152.183 58.6035 151.885 58.6743 151.631 58.8159C151.377 58.9526 151.165 59.1577 150.994 59.4312C150.823 59.7046 150.694 60.0439 150.606 60.4492C150.523 60.8496 150.481 61.3135 150.481 61.8408V62.2876C150.481 62.8101 150.523 63.2739 150.606 63.6792C150.694 64.0796 150.823 64.4189 150.994 64.6973C151.17 64.9756 151.385 65.1855 151.638 65.3271C151.897 65.4688 152.198 65.5396 152.539 65.5396C152.866 65.5396 153.157 65.4688 153.411 65.3271C153.665 65.1855 153.877 64.9756 154.048 64.6973C154.224 64.4189 154.356 64.0796 154.444 63.6792C154.536 63.2739 154.583 62.8101 154.583 62.2876ZM163.023 56.7358H167.22C168.04 56.7358 168.753 56.8579 169.359 57.1021C169.964 57.3462 170.43 57.7075 170.758 58.186C171.09 58.6646 171.256 59.2554 171.256 59.9585C171.256 60.5688 171.16 61.0791 170.97 61.4893C170.78 61.8994 170.513 62.2388 170.172 62.5073C169.835 62.771 169.442 62.9883 168.992 63.1592L168.15 63.6353H164.627L164.613 61.6504H167.22C167.547 61.6504 167.818 61.5918 168.033 61.4746C168.248 61.3574 168.409 61.1914 168.516 60.9766C168.629 60.7568 168.685 60.4956 168.685 60.1929C168.685 59.8853 168.629 59.6216 168.516 59.4019C168.404 59.1821 168.238 59.0137 168.018 58.8965C167.803 58.7793 167.537 58.7207 167.22 58.7207H165.594V67.3999H163.023V56.7358ZM168.861 67.3999L166.502 62.6831L169.227 62.6685L171.615 67.29V67.3999H168.861ZM180.773 67.3999H178.407L178.422 65.4224H180.773C181.261 65.4224 181.674 65.3052 182.011 65.0708C182.352 64.8364 182.611 64.4873 182.787 64.0234C182.968 63.5547 183.058 62.9785 183.058 62.2949V61.8335C183.058 61.3208 183.007 60.8716 182.904 60.4858C182.806 60.0952 182.66 59.7705 182.465 59.5117C182.269 59.248 182.025 59.0503 181.732 58.9185C181.444 58.7866 181.112 58.7207 180.736 58.7207H178.363V56.7358H180.736C181.459 56.7358 182.12 56.8604 182.721 57.1094C183.326 57.3535 183.849 57.7051 184.288 58.1641C184.733 58.6182 185.074 59.1577 185.314 59.7827C185.558 60.4028 185.68 61.0913 185.68 61.8481V62.2949C185.68 63.0469 185.558 63.7354 185.314 64.3604C185.074 64.9854 184.735 65.5249 184.296 65.979C183.856 66.4331 183.336 66.7847 182.736 67.0337C182.14 67.2778 181.486 67.3999 180.773 67.3999ZM179.879 56.7358V67.3999H177.308V56.7358H179.879Z" fill="white"/>
</g>
<defs>
<filter id="filter0_d_24_343" x="26" y="30" width="226" height="73" filterUnits="userSpaceOnUse" color-interpolation-filters="sRGB">
<feFlood flood-opacity="0" result="BackgroundImageFix"/>
<feColorMatrix in="SourceAlpha" type="matrix" values="0 0 0 0 0 0 0 0 0 0 0 0 0 0 0 0 0 0 127 0" result="hardAlpha"/>
<feOffset dy="4"/>
<feGaussianBlur stdDeviation="2"/>
<feComposite in2="hardAlpha" operator="out"/>
<feColorMatrix type="matrix" values="0 0 0 0 0 0 0 0 0 0 0 0 0 0 0 0 0 0 0.25 0"/>
<feBlend mode="normal" in2="BackgroundImageFix" result="effect1_dropShadow_24_343"/>
<feBlend mode="normal" in="SourceGraphic" in2="effect1_dropShadow_24_343" result="shape"/>
</filter>
<filter id="filter1_d_24_343" x="0" y="0" width="298" height="145" filterUnits="userSpaceOnUse" color-interpolation-filters="sRGB">
<feFlood flood-opacity="0" result="BackgroundImageFix"/>
<feColorMatrix in="SourceAlpha" type="matrix" values="0 0 0 0 0 0 0 0 0 0 0 0 0 0 0 0 0 0 127 0" result="hardAlpha"/>
<feOffset dx="10" dy="10"/>
<feGaussianBlur stdDeviation="20"/>
<feComposite in2="hardAlpha" operator="out"/>
<feColorMatrix type="matrix" values="0 0 0 0 1 0 0 0 0 0 0 0 0 0 0.9 0 0 0 0.7 0"/>
<feBlend mode="normal" in2="BackgroundImageFix" result="effect1_dropShadow_24_343"/>
<feBlend mode="normal" in="SourceGraphic" in2="effect1_dropShadow_24_343" result="shape"/>
</filter>
<linearGradient id="paint0_linear_24_343" x1="48.3909" y1="40.4" x2="215.203" y2="91.1862" gradientUnits="userSpaceOnUse">
<stop stop-opacity="0.25"/>
<stop offset="1" stop-color="#ED7AE1"/>
</linearGradient>
</defs>
</svg>
