<svg width="264" height="145" viewBox="0 0 264 145" fill="none" xmlns="http://www.w3.org/2000/svg">
<g filter="url(#filter0_d_21_114)">
<g filter="url(#filter1_d_21_114)">
<rect x="29.9999" y="30" width="184" height="65" rx="32.5" fill="url(#paint0_linear_21_114)" shape-rendering="crispEdges"/>
</g>
<path d="M60.214 65.4224V67.3999H54.8233V65.4224H60.214ZM55.7389 56.7358V67.3999H53.1681V56.7358H55.7389ZM73.1368 65.4224V67.3999H67.4532V65.4224H73.1368ZM68.3687 56.7358V67.3999H65.7979V56.7358H68.3687ZM72.4044 60.9692V62.8809H67.4532V60.9692H72.4044ZM73.1588 56.7358V58.7207H67.4532V56.7358H73.1588ZM83.2105 58.9771L80.6104 67.3999H77.8492L81.7677 56.7358H83.5182L83.2105 58.9771ZM85.3639 67.3999L82.7564 58.9771L82.4195 56.7358H84.192L88.1324 67.3999H85.3639ZM85.2613 63.4229V65.4077H79.7901V63.4229H85.2613ZM93.4161 56.7358H97.6129C98.4332 56.7358 99.1461 56.8579 99.7516 57.1021C100.357 57.3462 100.823 57.7075 101.15 58.186C101.483 58.6646 101.649 59.2554 101.649 59.9585C101.649 60.5688 101.553 61.0791 101.363 61.4893C101.172 61.8994 100.906 62.2388 100.565 62.5073C100.228 62.771 99.8346 62.9883 99.3853 63.1592L98.5431 63.6353H95.0201L95.0055 61.6504H97.6129C97.94 61.6504 98.211 61.5918 98.4259 61.4746C98.6407 61.3574 98.8018 61.1914 98.9093 60.9766C99.0216 60.7568 99.0777 60.4956 99.0777 60.1929C99.0777 59.8853 99.0216 59.6216 98.9093 59.4019C98.797 59.1821 98.631 59.0137 98.4112 58.8965C98.1964 58.7793 97.9303 58.7207 97.6129 58.7207H95.9869V67.3999H93.4161V56.7358ZM99.2535 67.3999L96.8951 62.6831L99.6197 62.6685L102.007 67.29V67.3999H99.2535ZM116.608 56.7358V67.3999H114.044L110.272 60.7642V67.3999H107.701V56.7358H110.272L114.044 63.3716V56.7358H116.608ZM132.243 56.7358H134.338L136.718 64.1553L139.099 56.7358H141.193L137.568 67.3999H135.869L132.243 56.7358ZM130.969 56.7358H133.137L133.54 64.9097V67.3999H130.969V56.7358ZM140.3 56.7358H142.475V67.3999H139.897V64.9097L140.3 56.7358ZM157.647 61.8555V62.2876C157.647 63.103 157.532 63.8354 157.302 64.4849C157.078 65.1294 156.758 65.6812 156.343 66.1401C155.928 66.5942 155.437 66.9434 154.871 67.1875C154.304 67.4268 153.679 67.5464 152.996 67.5464C152.307 67.5464 151.677 67.4268 151.106 67.1875C150.54 66.9434 150.046 66.5942 149.627 66.1401C149.212 65.6812 148.889 65.1294 148.66 64.4849C148.435 63.8354 148.323 63.103 148.323 62.2876V61.8555C148.323 61.04 148.435 60.3076 148.66 59.6582C148.889 59.0088 149.209 58.457 149.619 58.0029C150.034 57.5439 150.525 57.1948 151.091 56.9556C151.663 56.7114 152.293 56.5894 152.981 56.5894C153.665 56.5894 154.29 56.7114 154.856 56.9556C155.427 57.1948 155.921 57.5439 156.336 58.0029C156.751 58.457 157.073 59.0088 157.302 59.6582C157.532 60.3076 157.647 61.04 157.647 61.8555ZM155.039 62.2876V61.8408C155.039 61.3135 154.993 60.8496 154.9 60.4492C154.812 60.0439 154.68 59.7046 154.504 59.4312C154.329 59.1577 154.111 58.9526 153.853 58.8159C153.599 58.6743 153.308 58.6035 152.981 58.6035C152.639 58.6035 152.341 58.6743 152.087 58.8159C151.834 58.9526 151.621 59.1577 151.45 59.4312C151.279 59.7046 151.15 60.0439 151.062 60.4492C150.979 60.8496 150.938 61.3135 150.938 61.8408V62.2876C150.938 62.8101 150.979 63.2739 151.062 63.6792C151.15 64.0796 151.279 64.4189 151.45 64.6973C151.626 64.9756 151.841 65.1855 152.095 65.3271C152.354 65.4688 152.654 65.5396 152.996 65.5396C153.323 65.5396 153.613 65.4688 153.867 65.3271C154.121 65.1855 154.334 64.9756 154.504 64.6973C154.68 64.4189 154.812 64.0796 154.9 63.6792C154.993 63.2739 155.039 62.8101 155.039 62.2876ZM163.48 56.7358H167.676C168.497 56.7358 169.21 56.8579 169.815 57.1021C170.421 57.3462 170.887 57.7075 171.214 58.186C171.546 58.6646 171.712 59.2554 171.712 59.9585C171.712 60.5688 171.617 61.0791 171.426 61.4893C171.236 61.8994 170.97 62.2388 170.628 62.5073C170.291 62.771 169.898 62.9883 169.449 63.1592L168.607 63.6353H165.084L165.069 61.6504H167.676C168.004 61.6504 168.275 61.5918 168.489 61.4746C168.704 61.3574 168.865 61.1914 168.973 60.9766C169.085 60.7568 169.141 60.4956 169.141 60.1929C169.141 59.8853 169.085 59.6216 168.973 59.4019C168.86 59.1821 168.694 59.0137 168.475 58.8965C168.26 58.7793 167.994 58.7207 167.676 58.7207H166.05V67.3999H163.48V56.7358ZM169.317 67.3999L166.959 62.6831L169.683 62.6685L172.071 67.29V67.3999H169.317ZM185.104 65.4224V67.3999H179.42V65.4224H185.104ZM180.336 56.7358V67.3999H177.765V56.7358H180.336ZM184.371 60.9692V62.8809H179.42V60.9692H184.371ZM185.126 56.7358V58.7207H179.42V56.7358H185.126Z" fill="white"/>
</g>
<defs>
<filter id="filter0_d_21_114" x="25.9999" y="30" width="192" height="73" filterUnits="userSpaceOnUse" color-interpolation-filters="sRGB">
<feFlood flood-opacity="0" result="BackgroundImageFix"/>
<feColorMatrix in="SourceAlpha" type="matrix" values="0 0 0 0 0 0 0 0 0 0 0 0 0 0 0 0 0 0 127 0" result="hardAlpha"/>
<feOffset dy="4"/>
<feGaussianBlur stdDeviation="2"/>
<feComposite in2="hardAlpha" operator="out"/>
<feColorMatrix type="matrix" values="0 0 0 0 0 0 0 0 0 0 0 0 0 0 0 0 0 0 0.25 0"/>
<feBlend mode="normal" in2="BackgroundImageFix" result="effect1_dropShadow_21_114"/>
<feBlend mode="normal" in="SourceGraphic" in2="effect1_dropShadow_21_114" result="shape"/>
</filter>
<filter id="filter1_d_21_114" x="-6.10352e-05" y="0" width="264" height="145" filterUnits="userSpaceOnUse" color-interpolation-filters="sRGB">
<feFlood flood-opacity="0" result="BackgroundImageFix"/>
<feColorMatrix in="SourceAlpha" type="matrix" values="0 0 0 0 0 0 0 0 0 0 0 0 0 0 0 0 0 0 127 0" result="hardAlpha"/>
<feOffset dx="10" dy="10"/>
<feGaussianBlur stdDeviation="20"/>
<feComposite in2="hardAlpha" operator="out"/>
<feColorMatrix type="matrix" values="0 0 0 0 1 0 0 0 0 0 0 0 0 0 0.9 0 0 0 0.7 0"/>
<feBlend mode="normal" in2="BackgroundImageFix" result="effect1_dropShadow_21_114"/>
<feBlend mode="normal" in="SourceGraphic" in2="effect1_dropShadow_21_114" result="shape"/>
</filter>
<linearGradient id="paint0_linear_21_114" x1="45.5226" y1="40.4" x2="189.839" y2="77.4847" gradientUnits="userSpaceOnUse">
<stop stop-opacity="0.25"/>
<stop offset="1" stop-color="#ED7AE1"/>
</linearGradient>
</defs>
</svg>
