<svg width="298" height="145" viewBox="0 0 298 145" fill="none" xmlns="http://www.w3.org/2000/svg">
<g filter="url(#filter0_d_24_406)">
<g filter="url(#filter1_d_24_406)">
<rect x="30" y="30" width="218" height="65" rx="32.5" fill="url(#paint0_linear_24_406)" shape-rendering="crispEdges"/>
</g>
<path d="M119.456 62.8667H116.709L116.695 61.1821H118.921C119.322 61.1821 119.641 61.1382 119.881 61.0503C120.12 60.9575 120.293 60.8232 120.401 60.6475C120.513 60.4717 120.569 60.252 120.569 59.9883C120.569 59.6855 120.513 59.4414 120.401 59.2559C120.288 59.0703 120.11 58.936 119.866 58.853C119.627 58.7651 119.317 58.7212 118.936 58.7212H117.676V67.4004H115.105V56.7363H118.936C119.595 56.7363 120.183 56.7974 120.701 56.9194C121.219 57.0366 121.658 57.2173 122.019 57.4614C122.386 57.7056 122.664 58.0132 122.854 58.3843C123.045 58.7505 123.14 59.1826 123.14 59.6807C123.14 60.1152 123.047 60.5229 122.862 60.9038C122.676 61.2847 122.366 61.5947 121.931 61.834C121.502 62.0684 120.913 62.1904 120.166 62.2002L119.456 62.8667ZM119.353 67.4004H116.087L116.966 65.4229H119.353C119.705 65.4229 119.986 65.3691 120.196 65.2617C120.41 65.1494 120.564 65.0029 120.657 64.8223C120.755 64.6367 120.803 64.4316 120.803 64.207C120.803 63.9336 120.757 63.6968 120.664 63.4966C120.576 63.2964 120.435 63.1426 120.24 63.0352C120.044 62.9229 119.783 62.8667 119.456 62.8667H117.295L117.31 61.1821H119.895L120.496 61.856C121.209 61.8267 121.773 61.9268 122.188 62.1562C122.608 62.3857 122.908 62.6885 123.089 63.0645C123.269 63.4404 123.36 63.8335 123.36 64.2437C123.36 64.9419 123.208 65.5254 122.906 65.9941C122.608 66.4629 122.161 66.8145 121.565 67.0488C120.97 67.2832 120.232 67.4004 119.353 67.4004ZM138.311 61.856V62.2881C138.311 63.1035 138.197 63.8359 137.967 64.4854C137.742 65.1299 137.423 65.6816 137.008 66.1406C136.593 66.5947 136.102 66.9438 135.535 67.188C134.969 67.4272 134.344 67.5469 133.66 67.5469C132.972 67.5469 132.342 67.4272 131.771 67.188C131.204 66.9438 130.711 66.5947 130.291 66.1406C129.876 65.6816 129.554 65.1299 129.324 64.4854C129.1 63.8359 128.988 63.1035 128.988 62.2881V61.856C128.988 61.0405 129.1 60.3081 129.324 59.6587C129.554 59.0093 129.874 58.4575 130.284 58.0034C130.699 57.5444 131.19 57.1953 131.756 56.9561C132.327 56.7119 132.957 56.5898 133.646 56.5898C134.329 56.5898 134.954 56.7119 135.521 56.9561C136.092 57.1953 136.585 57.5444 137 58.0034C137.415 58.4575 137.738 59.0093 137.967 59.6587C138.197 60.3081 138.311 61.0405 138.311 61.856ZM135.704 62.2881V61.8413C135.704 61.314 135.657 60.8501 135.565 60.4497C135.477 60.0444 135.345 59.7051 135.169 59.4316C134.993 59.1582 134.776 58.9531 134.517 58.8164C134.263 58.6748 133.973 58.604 133.646 58.604C133.304 58.604 133.006 58.6748 132.752 58.8164C132.498 58.9531 132.286 59.1582 132.115 59.4316C131.944 59.7051 131.815 60.0444 131.727 60.4497C131.644 60.8501 131.602 61.314 131.602 61.8413V62.2881C131.602 62.8105 131.644 63.2744 131.727 63.6797C131.815 64.0801 131.944 64.4194 132.115 64.6978C132.291 64.9761 132.506 65.186 132.76 65.3276C133.018 65.4692 133.319 65.54 133.66 65.54C133.988 65.54 134.278 65.4692 134.532 65.3276C134.786 65.186 134.998 64.9761 135.169 64.6978C135.345 64.4194 135.477 64.0801 135.565 63.6797C135.657 63.2744 135.704 62.8105 135.704 62.2881ZM153.168 61.856V62.2881C153.168 63.1035 153.053 63.8359 152.824 64.4854C152.599 65.1299 152.279 65.6816 151.864 66.1406C151.449 66.5947 150.958 66.9438 150.392 67.188C149.825 67.4272 149.2 67.5469 148.517 67.5469C147.828 67.5469 147.199 67.4272 146.627 67.188C146.061 66.9438 145.568 66.5947 145.148 66.1406C144.733 65.6816 144.41 65.1299 144.181 64.4854C143.956 63.8359 143.844 63.1035 143.844 62.2881V61.856C143.844 61.0405 143.956 60.3081 144.181 59.6587C144.41 59.0093 144.73 58.4575 145.14 58.0034C145.555 57.5444 146.046 57.1953 146.613 56.9561C147.184 56.7119 147.814 56.5898 148.502 56.5898C149.186 56.5898 149.811 56.7119 150.377 56.9561C150.949 57.1953 151.442 57.5444 151.857 58.0034C152.272 58.4575 152.594 59.0093 152.824 59.6587C153.053 60.3081 153.168 61.0405 153.168 61.856ZM150.56 62.2881V61.8413C150.56 61.314 150.514 60.8501 150.421 60.4497C150.333 60.0444 150.201 59.7051 150.026 59.4316C149.85 59.1582 149.633 58.9531 149.374 58.8164C149.12 58.6748 148.829 58.604 148.502 58.604C148.16 58.604 147.863 58.6748 147.609 58.8164C147.355 58.9531 147.142 59.1582 146.971 59.4316C146.801 59.7051 146.671 60.0444 146.583 60.4497C146.5 60.8501 146.459 61.314 146.459 61.8413V62.2881C146.459 62.8105 146.5 63.2744 146.583 63.6797C146.671 64.0801 146.801 64.4194 146.971 64.6978C147.147 64.9761 147.362 65.186 147.616 65.3276C147.875 65.4692 148.175 65.54 148.517 65.54C148.844 65.54 149.135 65.4692 149.388 65.3276C149.642 65.186 149.855 64.9761 150.026 64.6978C150.201 64.4194 150.333 64.0801 150.421 63.6797C150.514 63.2744 150.56 62.8105 150.56 62.2881ZM161.572 56.7363V67.4004H159.001V56.7363H161.572ZM167.936 56.7363L163.805 62.1416L161.388 64.7856L160.92 62.4272L162.465 60.0835L164.765 56.7363H167.936ZM164.897 67.4004L162.143 62.5957L164.142 61.1235L167.936 67.4004H164.897Z" fill="white"/>
</g>
<defs>
<filter id="filter0_d_24_406" x="26" y="30" width="226" height="73" filterUnits="userSpaceOnUse" color-interpolation-filters="sRGB">
<feFlood flood-opacity="0" result="BackgroundImageFix"/>
<feColorMatrix in="SourceAlpha" type="matrix" values="0 0 0 0 0 0 0 0 0 0 0 0 0 0 0 0 0 0 127 0" result="hardAlpha"/>
<feOffset dy="4"/>
<feGaussianBlur stdDeviation="2"/>
<feComposite in2="hardAlpha" operator="out"/>
<feColorMatrix type="matrix" values="0 0 0 0 0 0 0 0 0 0 0 0 0 0 0 0 0 0 0.25 0"/>
<feBlend mode="normal" in2="BackgroundImageFix" result="effect1_dropShadow_24_406"/>
<feBlend mode="normal" in="SourceGraphic" in2="effect1_dropShadow_24_406" result="shape"/>
</filter>
<filter id="filter1_d_24_406" x="0" y="0" width="298" height="145" filterUnits="userSpaceOnUse" color-interpolation-filters="sRGB">
<feFlood flood-opacity="0" result="BackgroundImageFix"/>
<feColorMatrix in="SourceAlpha" type="matrix" values="0 0 0 0 0 0 0 0 0 0 0 0 0 0 0 0 0 0 127 0" result="hardAlpha"/>
<feOffset dx="10" dy="10"/>
<feGaussianBlur stdDeviation="20"/>
<feComposite in2="hardAlpha" operator="out"/>
<feColorMatrix type="matrix" values="0 0 0 0 1 0 0 0 0 0 0 0 0 0 0.9 0 0 0 0.7 0"/>
<feBlend mode="normal" in2="BackgroundImageFix" result="effect1_dropShadow_24_406"/>
<feBlend mode="normal" in="SourceGraphic" in2="effect1_dropShadow_24_406" result="shape"/>
</filter>
<linearGradient id="paint0_linear_24_406" x1="48.3909" y1="40.4" x2="215.203" y2="91.1862" gradientUnits="userSpaceOnUse">
<stop stop-opacity="0.25"/>
<stop offset="1" stop-color="#ED7AE1"/>
</linearGradient>
</defs>
</svg>
