<svg width="245" height="251" viewBox="0 0 245 251" fill="none" xmlns="http://www.w3.org/2000/svg">
<g filter="url(#filter0_d_24_235)">
<path d="M133.288 171.149C133.106 167.178 131.387 153.564 133.565 152.873C135.743 152.182 144.824 167.697 144.461 169.078C144.098 170.459 139.918 174.972 134.654 173.591" stroke="#ED7AE1" stroke-width="3" stroke-miterlimit="1" stroke-linecap="round"/>
<path d="M114.972 190.351C117.837 189.141 122.301 187.01 124.899 182.426C127.496 177.842 128.708 175.869 129.472 174.851" stroke="#ED7AE1" stroke-width="3" stroke-miterlimit="1" stroke-linecap="round"/>
<path d="M143.472 158.851C144.452 157.4 146.825 154.369 148.472 153.851" stroke="#ED7AE1" stroke-width="3" stroke-miterlimit="1" stroke-linecap="round"/>
<path d="M65.8719 170.699C64.5661 169.95 61.7241 168.205 60.8024 167.224C59.6502 165.997 57.1676 168.057 59.4719 172.351C61.7763 176.644 64.4719 181.351 71.4719 185.851" stroke="#ED7AE1" stroke-width="3" stroke-miterlimit="1" stroke-linecap="round"/>
<path d="M148.964 144.609C147.436 146.519 153.548 155.305 154.312 157.979C159.66 160.462 161.761 154.923 160.233 152.822C158.705 150.721 150.492 142.699 148.964 144.609Z" stroke="#ED7AE1" stroke-width="3" stroke-miterlimit="1" stroke-linecap="round"/>
<path d="M98.4719 199.351C101.146 202.725 106.869 206.759 115.731 204.009C126.809 200.571 132.73 187.965 140.369 179.37C148.009 170.775 155.649 163.709 162.143 161.799C168.637 159.889 168.472 146.351 159.472 146.851" stroke="#ED7AE1" stroke-width="3" stroke-miterlimit="1" stroke-linecap="round"/>
<path d="M120.315 115.96C122.097 116.342 126.732 116.456 131.011 113.859C135.289 111.261 137.632 108.065 138.268 106.792" stroke="#ED7AE1" stroke-width="3" stroke-miterlimit="1" stroke-linecap="round"/>
<path d="M157.559 54.4586C151.765 47.1371 132.844 35.3972 103.507 47.0097C66.8361 61.5254 72.566 77.951 66.8361 91.3207C61.1062 104.69 55.7583 111.184 59.1963 118.251C62.6342 125.318 63.7802 125.127 61.4882 128.374C59.1963 131.621 54.9719 136.978 54.9719 144.351C54.9719 150.593 59.5511 155.368 65.4719 157.851" stroke="#ED7AE1" stroke-width="3" stroke-miterlimit="1" stroke-linecap="round"/>
<path d="M161.952 50.639C173.603 40.9619 199.043 23.1357 207.6 29.2475C218.296 36.8873 210.656 72.4125 203.016 80.4343C196.904 86.8518 186.208 91.5121 181.624 93.04" stroke="#ED7AE1" stroke-width="3" stroke-miterlimit="1" stroke-linecap="round"/>
<path d="M190.472 96.3506C193.528 108.256 198.967 131.468 197.286 142.317C195.185 155.878 169.401 185.864 162.334 193.886C155.267 201.908 147.818 210.502 127.955 213.94C108.091 217.378 101.979 210.311 97.2044 205.536C93.3845 201.717 90.6469 198.215 88.4186 195.032" stroke="#ED7AE1" stroke-width="3" stroke-miterlimit="1" stroke-linecap="round"/>
<path d="M64.3531 120.353C69.319 118.252 79.2508 119.398 81.3518 122.071C80.5878 126.082 78.4868 135.059 76.1949 138.879C73.3299 143.654 69.701 145.755 69.51 156.833C69.319 167.91 66.6451 180.325 81.3518 187.965C96.0584 195.605 104.271 197.706 109.046 191.785C113.821 185.864 122.034 165.045 114.012 160.271C105.99 155.496 78.4263 162.563 73.9029 166.573" stroke="#ED7AE1" stroke-width="3" stroke-miterlimit="1" stroke-linecap="round"/>
<path d="M116.304 116.341C117.259 113.922 120.773 108.549 127.191 106.41C133.608 104.27 140.051 104.754 142.47 105.264" stroke="#ED7AE1" stroke-width="3" stroke-miterlimit="1" stroke-linecap="round"/>
<path d="M67.9821 121.116C68.2941 124.172 70.9465 129.321 79.0598 125.474" stroke="#ED7AE1" stroke-width="3" stroke-miterlimit="1" stroke-linecap="round"/>
<path d="M63.4719 77.3506C59.079 76.2046 49.0735 70.8847 37.9958 76.0416C26.918 81.1985 33.7938 85.2094 37.9958 90.1753C41.3573 94.148 48.9517 102.93 53.4719 108.851" stroke="#ED7AE1" stroke-width="3" stroke-miterlimit="1" stroke-linecap="round"/>
<path d="M142.852 139.643C151.256 140.789 162.907 136.205 168.828 143.081C174.749 149.957 170.929 159.506 168.828 162.18" stroke="#ED7AE1" stroke-width="3" stroke-miterlimit="1" stroke-linecap="round"/>
<path d="M168.828 137.351C173.603 139.07 178.95 145.181 177.232 154.54C175.856 162.027 173.348 171.284 172.266 174.977" stroke="#ED7AE1" stroke-width="3" stroke-miterlimit="1" stroke-linecap="round"/>
<path d="M72.184 120.734C71.802 121.498 71.2672 123.485 72.184 125.318" stroke="#ED7AE1" stroke-width="3" stroke-miterlimit="1" stroke-linecap="round"/>
<path d="M123.944 109.275C123.625 110.421 123.524 113.095 125.663 114.623" stroke="#ED7AE1" stroke-width="3" stroke-miterlimit="1" stroke-linecap="round"/>
<path d="M132.73 106.219C133.239 106.473 134.296 107.479 134.449 109.466" stroke="#ED7AE1" stroke-width="3" stroke-miterlimit="1" stroke-linecap="round"/>
</g>
<defs>
<filter id="filter0_d_24_235" x="0.500336" y="0.5" width="243.879" height="249.851" filterUnits="userSpaceOnUse" color-interpolation-filters="sRGB">
<feFlood flood-opacity="0" result="BackgroundImageFix"/>
<feColorMatrix in="SourceAlpha" type="matrix" values="0 0 0 0 0 0 0 0 0 0 0 0 0 0 0 0 0 0 127 0" result="hardAlpha"/>
<feOffset dy="4"/>
<feGaussianBlur stdDeviation="15"/>
<feComposite in2="hardAlpha" operator="out"/>
<feColorMatrix type="matrix" values="0 0 0 0 1 0 0 0 0 0 0 0 0 0 0.9 0 0 0 1 0"/>
<feBlend mode="normal" in2="BackgroundImageFix" result="effect1_dropShadow_24_235"/>
<feBlend mode="normal" in="SourceGraphic" in2="effect1_dropShadow_24_235" result="shape"/>
</filter>
</defs>
</svg>
