<svg width="945" height="1200" viewBox="0 0 945 1200" fill="none" xmlns="http://www.w3.org/2000/svg">
<g style="mix-blend-mode:lighten">
<g style="mix-blend-mode:lighten">
<path d="M473.047 33.7945C538.616 49.3994 654.447 129.218 593.213 323.651C516.67 566.694 249.227 451.523 124.73 675.268C0.23352 899.013 206.089 1067.02 288.527 1080.79" stroke="url(#paint0_linear_24_383)"/>
</g>
<g style="mix-blend-mode:lighten">
<path d="M490.517 41.524C556.087 57.1288 671.917 136.947 610.683 331.381C534.14 574.423 266.697 459.253 142.2 682.997C17.7037 906.742 223.559 1074.75 305.997 1088.52" stroke="url(#paint1_linear_24_383)"/>
</g>
<g style="mix-blend-mode:lighten">
<path d="M507.987 49.2525C573.557 64.8574 689.387 144.676 628.153 339.109C551.611 582.152 284.167 466.981 159.671 690.726C35.1741 914.471 241.03 1082.48 323.468 1096.25" stroke="url(#paint2_linear_24_383)"/>
</g>
<g style="mix-blend-mode:lighten">
<path d="M525.458 56.982C591.027 72.5869 706.857 152.405 645.623 346.839C569.081 589.881 301.637 474.711 177.141 698.455C52.6443 922.2 258.5 1090.21 340.938 1103.98" stroke="url(#paint3_linear_24_383)"/>
</g>
<g style="mix-blend-mode:lighten">
<path d="M542.928 64.7115C608.497 80.3163 724.328 160.135 663.094 354.568C586.551 597.61 319.108 482.44 194.611 706.185C70.1144 929.93 275.97 1097.94 358.408 1111.71" stroke="url(#paint4_linear_24_383)"/>
</g>
<g style="mix-blend-mode:lighten">
<path d="M560.398 72.44C625.968 88.0449 741.798 167.863 680.564 362.297C604.021 605.339 336.578 490.169 212.081 713.913C87.5847 937.658 293.44 1105.67 375.878 1119.44" stroke="url(#paint5_linear_24_383)"/>
</g>
<g style="mix-blend-mode:lighten">
<path d="M577.868 80.1695C643.438 95.7743 759.268 175.593 698.034 370.026C621.491 613.068 354.048 497.898 229.551 721.643C105.055 945.388 310.911 1113.4 393.348 1127.17" stroke="url(#paint6_linear_24_383)"/>
</g>
<g style="mix-blend-mode:lighten">
<path d="M595.339 87.898C660.908 103.503 776.738 183.321 715.504 377.755C638.962 620.797 371.518 505.627 247.022 729.371C122.525 953.116 328.381 1121.13 410.819 1134.9" stroke="url(#paint7_linear_24_383)"/>
</g>
<g style="mix-blend-mode:lighten">
<path d="M612.809 95.6275C678.378 111.232 794.209 191.051 732.975 385.484C656.432 628.527 388.989 513.356 264.492 737.101C139.995 960.846 345.851 1128.86 428.289 1142.63" stroke="url(#paint8_linear_24_383)"/>
</g>
<g style="mix-blend-mode:lighten">
<path d="M630.279 103.357C695.849 118.962 811.679 198.78 750.445 393.214C673.902 636.256 406.459 521.086 281.962 744.83C157.466 968.575 363.321 1136.59 445.759 1150.35" stroke="url(#paint9_linear_24_383)"/>
</g>
<g style="mix-blend-mode:lighten">
<path d="M647.749 111.086C713.319 126.69 829.149 206.509 767.915 400.942C691.373 643.985 423.929 528.814 299.433 752.559C174.936 976.304 380.792 1144.32 463.23 1158.08" stroke="url(#paint10_linear_24_383)"/>
</g>
<g style="mix-blend-mode:lighten">
<path d="M665.22 118.815C730.789 134.42 846.619 214.238 785.385 408.672C708.843 651.714 441.399 536.544 316.903 760.288C192.406 984.033 398.262 1152.04 480.7 1165.81" stroke="url(#paint11_linear_24_383)"/>
</g>
<g style="mix-blend-mode:lighten">
<path d="M682.69 126.544C748.259 142.149 864.089 221.968 802.855 416.401C726.313 659.443 458.869 544.273 334.373 768.018C209.876 991.763 415.732 1159.77 498.17 1173.54" stroke="url(#paint12_linear_24_383)"/>
</g>
<g style="mix-blend-mode:lighten">
<path d="M700.16 134.273C765.729 149.878 881.56 229.696 820.326 424.13C743.783 667.172 476.34 552.002 351.843 775.746C227.347 999.491 433.202 1167.5 515.64 1181.27" stroke="url(#paint13_linear_24_383)"/>
</g>
<g style="mix-blend-mode:lighten">
<path d="M717.63 142.002C783.2 157.607 899.03 237.426 837.796 431.859C761.253 674.901 493.81 559.731 369.313 783.476C244.817 1007.22 450.672 1175.23 533.11 1189" stroke="url(#paint14_linear_24_383)"/>
</g>
<g style="mix-blend-mode:lighten">
<path d="M735.101 149.731C800.67 165.336 916.5 245.154 855.266 439.588C778.724 682.63 511.28 567.46 386.784 791.204C262.287 1014.95 468.143 1182.96 550.581 1196.73" stroke="url(#paint15_linear_24_383)"/>
</g>
</g>
<defs>
<linearGradient id="paint0_linear_24_383" x1="535.92" y1="57.3185" x2="146.066" y2="1026.1" gradientUnits="userSpaceOnUse">
<stop stop-color="#8F00FF"/>
<stop offset="1" stop-color="#FF00E5"/>
</linearGradient>
<linearGradient id="paint1_linear_24_383" x1="553.39" y1="65.048" x2="163.537" y2="1033.83" gradientUnits="userSpaceOnUse">
<stop stop-color="#8F00FF"/>
<stop offset="1" stop-color="#FF00E5"/>
</linearGradient>
<linearGradient id="paint2_linear_24_383" x1="570.86" y1="72.7765" x2="181.007" y2="1041.56" gradientUnits="userSpaceOnUse">
<stop stop-color="#8F00FF"/>
<stop offset="1" stop-color="#FF00E5"/>
</linearGradient>
<linearGradient id="paint3_linear_24_383" x1="588.33" y1="80.506" x2="198.477" y2="1049.29" gradientUnits="userSpaceOnUse">
<stop stop-color="#8F00FF"/>
<stop offset="1" stop-color="#FF00E5"/>
</linearGradient>
<linearGradient id="paint4_linear_24_383" x1="605.801" y1="88.2355" x2="215.948" y2="1057.02" gradientUnits="userSpaceOnUse">
<stop stop-color="#8F00FF"/>
<stop offset="1" stop-color="#FF00E5"/>
</linearGradient>
<linearGradient id="paint5_linear_24_383" x1="623.271" y1="95.964" x2="233.418" y2="1064.75" gradientUnits="userSpaceOnUse">
<stop stop-color="#8F00FF"/>
<stop offset="1" stop-color="#FF00E5"/>
</linearGradient>
<linearGradient id="paint6_linear_24_383" x1="640.741" y1="103.693" x2="250.888" y2="1072.48" gradientUnits="userSpaceOnUse">
<stop stop-color="#8F00FF"/>
<stop offset="1" stop-color="#FF00E5"/>
</linearGradient>
<linearGradient id="paint7_linear_24_383" x1="658.211" y1="111.422" x2="268.358" y2="1080.2" gradientUnits="userSpaceOnUse">
<stop stop-color="#8F00FF"/>
<stop offset="1" stop-color="#FF00E5"/>
</linearGradient>
<linearGradient id="paint8_linear_24_383" x1="675.682" y1="119.151" x2="285.828" y2="1087.93" gradientUnits="userSpaceOnUse">
<stop stop-color="#8F00FF"/>
<stop offset="1" stop-color="#FF00E5"/>
</linearGradient>
<linearGradient id="paint9_linear_24_383" x1="693.152" y1="126.881" x2="303.299" y2="1095.66" gradientUnits="userSpaceOnUse">
<stop stop-color="#8F00FF"/>
<stop offset="1" stop-color="#FF00E5"/>
</linearGradient>
<linearGradient id="paint10_linear_24_383" x1="710.622" y1="134.609" x2="320.769" y2="1103.39" gradientUnits="userSpaceOnUse">
<stop stop-color="#8F00FF"/>
<stop offset="1" stop-color="#FF00E5"/>
</linearGradient>
<linearGradient id="paint11_linear_24_383" x1="728.092" y1="142.339" x2="338.239" y2="1111.12" gradientUnits="userSpaceOnUse">
<stop stop-color="#8F00FF"/>
<stop offset="1" stop-color="#FF00E5"/>
</linearGradient>
<linearGradient id="paint12_linear_24_383" x1="745.562" y1="150.068" x2="355.709" y2="1118.85" gradientUnits="userSpaceOnUse">
<stop stop-color="#8F00FF"/>
<stop offset="1" stop-color="#FF00E5"/>
</linearGradient>
<linearGradient id="paint13_linear_24_383" x1="763.033" y1="157.797" x2="373.18" y2="1126.58" gradientUnits="userSpaceOnUse">
<stop stop-color="#8F00FF"/>
<stop offset="1" stop-color="#FF00E5"/>
</linearGradient>
<linearGradient id="paint14_linear_24_383" x1="780.503" y1="165.526" x2="390.65" y2="1134.31" gradientUnits="userSpaceOnUse">
<stop stop-color="#8F00FF"/>
<stop offset="1" stop-color="#FF00E5"/>
</linearGradient>
<linearGradient id="paint15_linear_24_383" x1="797.973" y1="173.255" x2="408.12" y2="1142.04" gradientUnits="userSpaceOnUse">
<stop stop-color="#8F00FF"/>
<stop offset="1" stop-color="#FF00E5"/>
</linearGradient>
</defs>
</svg>
